<?xml version="1.0" encoding="UTF-8" standalone="no"?>
<svg viewBox="0 0 50 50" xmlns="http://www.w3.org/2000/svg" version="1.2" baseProfile="tiny">
<g fill="none" stroke="none" fill-rule="evenodd">
<g fill="#c0392b" transform="matrix(0.0548338,0,0,-0.0548336,-0.161988,50.4309)">
<path d="M458.879,7.85834 C710.679,7.85834 914.8,211.983 914.8,463.788 C914.8,715.583 710.679,919.709 458.879,919.709 C207.079,919.709 2.95417,715.583 2.95417,463.788 C2.95417,211.983 207.079,7.85834 458.879,7.85834"/>
</g>
<g fill="#a93226" transform="matrix(0.0548338,0,0,-0.0548336,-0.161988,50.4309)">
<path d="M458.879,46.6375 C689.263,46.6375 876.025,233.401 876.025,463.788 C876.025,694.166 689.263,880.929 458.879,880.929 C228.496,880.929 41.7292,694.166 41.7292,463.788 C41.7292,233.401 228.496,46.6375 458.879,46.6375"/>
</g>
<g fill="#fefefe" transform="matrix(0.0548336,0,0,-0.0548336,-0.325575,50.2543)">
<path d="M246.821,299.191 L623.233,675.604 C637.801,690.171 661.633,690.171 676.208,675.604 L676.905,674.9 C691.475,660.334 691.475,636.5 676.909,621.93 L300.496,245.521 C285.925,230.95 262.092,230.95 247.525,245.521 L246.821,246.217 C232.254,260.787 232.254,284.625 246.821,299.191"/>
</g>
<g fill="#fefefe" transform="matrix(0.0548336,0,0,-0.0548336,-0.325575,50.2543)">
<path d="M300.496,675.604 L676.905,299.191 C691.471,284.625 691.471,260.787 676.905,246.221 L676.204,245.521 C661.633,230.95 637.801,230.95 623.233,245.521 L246.821,621.93 C232.25,636.5 232.25,660.334 246.821,674.905 L247.521,675.604 C262.092,690.175 285.925,690.175 300.496,675.604"/>
</g>
</g>
</svg>
